<svg width="416" height="416" viewBox="0 0 416 416" fill="none" xmlns="http://www.w3.org/2000/svg">
<path d="M208 344C283.111 344 344 283.111 344 208C344 132.889 283.111 72 208 72C132.889 72 72 132.889 72 208C72 283.111 132.889 344 208 344Z" fill="white"/>
<mask id="mask0_89_259" style="mask-type:alpha" maskUnits="userSpaceOnUse" x="0" y="0" width="416" height="416">
<mask id="mask1_89_259" style="mask-type:alpha" maskUnits="userSpaceOnUse" x="0" y="0" width="416" height="416">
<path d="M404.84 188.28L390.296 179.56C384.104 175.848 379.912 169.72 378.024 162.76C377.992 162.632 377.96 162.504 377.912 162.376C375.976 155.352 376.552 147.864 380.088 141.48L388.328 126.648C396.744 111.48 385.96 92.808 368.616 92.52L351.496 92.232C344.248 92.104 337.528 88.888 332.408 83.768C332.36 83.72 332.296 83.656 332.248 83.608C327.112 78.488 323.896 71.768 323.784 64.52L323.496 47.4C323.192 30.024 304.52 19.24 289.352 27.672L274.52 35.912C268.152 39.448 260.664 40.024 253.624 38.088C253.496 38.056 253.368 38.024 253.24 37.976C246.28 36.072 240.152 31.896 236.44 25.704L227.72 11.16C218.792 -3.72 197.24 -3.72 188.312 11.16L179.624 25.64C175.88 31.88 169.704 36.088 162.696 38.008C162.616 38.024 162.552 38.056 162.472 38.072C155.384 40.024 147.848 39.448 141.416 35.88L126.632 27.672C111.464 19.24 92.792 30.024 92.504 47.368L92.216 64.488C92.088 71.736 88.872 78.456 83.752 83.576C83.704 83.624 83.64 83.688 83.592 83.736C78.472 88.872 71.752 92.088 64.504 92.2L47.384 92.488C30.024 92.792 19.24 111.464 27.672 126.632L35.912 141.464C39.448 147.848 40.024 155.32 38.088 162.36C38.056 162.488 38.024 162.616 37.976 162.744C36.072 169.704 31.896 175.832 25.704 179.544L11.16 188.264C-3.72 197.192 -3.72 218.76 11.16 227.672L25.704 236.408C31.896 240.12 36.088 246.248 37.976 253.208C38.008 253.336 38.04 253.464 38.088 253.592C40.024 260.632 39.448 268.104 35.912 274.488L27.672 289.352C19.256 304.52 30.04 323.192 47.384 323.48L64.504 323.768C71.752 323.896 78.472 327.112 83.592 332.232C83.64 332.28 83.704 332.344 83.752 332.392C88.888 337.512 92.104 344.232 92.216 351.48L92.504 368.584C92.792 385.928 111.464 396.712 126.632 388.296L141.464 380.056C147.832 376.52 155.32 375.944 162.36 377.88C162.488 377.912 162.616 377.944 162.744 377.992C169.704 379.896 175.832 384.072 179.544 390.264L188.264 404.808C197.192 419.688 218.744 419.688 227.672 404.808L236.392 390.264C240.104 384.072 246.232 379.88 253.192 377.992C253.32 377.96 253.448 377.928 253.576 377.88C260.6 375.944 268.088 376.52 274.472 380.056L289.304 388.296C304.472 396.712 323.144 385.928 323.432 368.584L323.72 351.48C323.848 344.232 327.064 337.512 332.184 332.392C332.232 332.344 332.296 332.28 332.344 332.232C337.464 327.096 344.184 323.88 351.432 323.768L368.552 323.48C385.896 323.192 396.68 304.52 388.264 289.352L380.024 274.52C376.488 268.136 375.912 260.664 377.848 253.624C377.88 253.496 377.912 253.368 377.96 253.24C379.864 246.28 384.04 240.152 390.232 236.44L404.776 227.704C419.704 218.776 419.704 197.208 404.84 188.28ZM299.304 171.304L194.344 276.264C191.336 279.272 187.272 280.952 183.032 280.952C178.792 280.952 174.712 279.272 171.72 276.264L116.472 221.016C110.216 214.76 110.216 204.648 116.472 198.392C122.728 192.136 132.84 192.136 139.096 198.392L183.032 242.328L276.68 148.68C282.936 142.424 293.048 142.424 299.304 148.68C305.56 154.936 305.56 165.048 299.304 171.304Z" fill="url(#paint0_linear_89_259)"/>
</mask>
<g mask="url(#mask1_89_259)">
<path d="M547.91 403.027C655.448 215.473 590.582 -23.747 403.028 -131.285C215.473 -238.823 -23.7468 -173.957 -131.285 13.5974C-238.823 201.152 -173.957 440.372 13.5975 547.91C201.152 655.448 440.372 590.582 547.91 403.027Z" fill="url(#paint1_linear_89_259)"/>
</g>
</mask>
<g mask="url(#mask0_89_259)">
<path d="M235.146 -320.143L-265.127 -15.1706C-330.226 24.515 -338.509 129.669 -283.626 219.698L-8.57868 670.882C46.3041 760.911 143.569 801.722 208.669 762.037L708.941 457.064C774.041 417.379 782.323 312.224 727.441 222.195L452.393 -228.988C397.511 -319.017 300.245 -359.829 235.146 -320.143Z" fill="url(#paint2_linear_89_259)"/>
</g>
<defs>
<linearGradient id="paint0_linear_89_259" x1="133" y1="5.31072e-06" x2="289.5" y2="431.5" gradientUnits="userSpaceOnUse">
<stop stop-color="#FFC671"/>
<stop offset="0.993652" stop-color="#FBE207"/>
</linearGradient>
<linearGradient id="paint1_linear_89_259" x1="-98.7093" y1="451.2" x2="515.208" y2="-34.5365" gradientUnits="userSpaceOnUse">
<stop stop-color="#966B38"/>
<stop offset="0.32" stop-color="#F5D461"/>
<stop offset="0.6" stop-color="#B1772E"/>
<stop offset="0.82" stop-color="#FDC202"/>
<stop offset="1" stop-color="#CB983F"/>
</linearGradient>
<linearGradient id="paint2_linear_89_259" x1="-89.4139" y1="410.679" x2="511.048" y2="44.6295" gradientUnits="userSpaceOnUse">
<stop stop-color="white"/>
<stop offset="0.06" stop-color="#E0E0E0"/>
<stop offset="0.12" stop-color="#C2C2C2"/>
<stop offset="0.18" stop-color="#B0B0B0"/>
<stop offset="0.22" stop-color="#AAAAAA"/>
<stop offset="0.42" stop-color="#EAE9DB"/>
<stop offset="0.48" stop-color="#FFFEEB"/>
<stop offset="0.61" stop-color="#C6C6C6"/>
<stop offset="0.64" stop-color="#CDCDCD"/>
<stop offset="0.74" stop-color="#E1E1E1"/>
<stop offset="0.81" stop-color="#E8E8E8"/>
<stop offset="0.87" stop-color="#C9C9C9"/>
<stop offset="0.95" stop-color="#ABABAB"/>
<stop offset="1" stop-color="#A0A0A0"/>
</linearGradient>
</defs>
</svg>
